#!OML:ASF I:\Actors\actors\Patient Classification 1\Patient 1\Session 1\Subject1.ASF
:FULLY-SPECIFIED
:DEGREES
802
root 1.06045 17.4736 9.31968 6.61753 -0.953119 -7.17613
lowerback -3.27089 2.68825 7.65466
upperback -6.46307 3.62261 1.09284
thorax -4.51332 1.48605 -3.14698
lowerneck -3.78542 -6.40063 -4.37103
upperneck 27.0742 -10.8032 8.71066
head 9.90633 -4.61475 2.7309
rclavicle -2.00524e-014 7.95139e-015
rhumerus -16.8807 34.1783 -86.6242
rradius 139.235
rwrist -61.0029
rhand 0.280261 -67.1362
rfingers 7.12502
rthumb 25.8588 -264.602
lclavicle -2.00524e-014 7.95139e-015
lhumerus -60.6781 23.5043 61.9338
lradius 104.197
lwrist 60.1355
lhand -39.9137 7.01184
lfingers 7.12502
lthumb -12.8846 36.5941
rfemur -1.99034 23.5387 23.2607
rtibia 5.59008
rfoot -14.4835 -25.9798
rtoes 3.19354
lfemur 8.05916 -40.1084 -17.5571
ltibia -4.73453
lfoot -17.8438 48.8179
ltoes 10.0885
803
root 1.0602 17.4742 9.31938 6.6266 -0.922548 -7.14483
lowerback -3.26704 2.67803 7.61418
upperback -6.46236 3.60946 1.092
thorax -4.51785 1.48121 -3.12578
lowerneck -3.69674 -6.41694 -4.45215
upperneck 26.818 -10.8249 8.84077
head 9.81002 -4.63039 2.78886
rclavicle -1.18525e-014 -2.8625e-014
rhumerus -16.5762 34.2485 -86.3963
rradius 139.295
rwrist -60.7965
rhand -0.00248899 -66.7288
rfingers 7.12502
rthumb 25.588 -264.97
lclavicle -1.18525e-014 -2.8625e-014
lhumerus -60.5874 23.546 61.922
lradius 104.157
lwrist 60.0415
lhand -39.8498 7.12077
lfingers 7.12502
lthumb -12.823 36.7069
rfemur -1.99425 23.5094 23.2253
rtibia 5.58011
rfoot -14.4437 -26.0028
rtoes 3.02581
lfemur 8.03035 -40.1173 -17.5741
ltibia -4.74119
lfoot -17.8107 48.8167
ltoes 10.067
804
root 1.06074 17.4751 9.32192 6.61697 -0.913842 -7.11668
lowerback -3.29733 2.67227 7.59429
upperback -6.45232 3.598 1.08551
thorax -4.4917 1.47749 -3.11982
lowerneck -3.44121 -6.42741 -4.43262
upperneck 26.322 -10.7907 8.83369
head 9.577 -4.63663 2.79183
rclavicle 6.70898e-016 1.51076e-014
rhumerus -16.2137 34.3221 -86.1341
rradius 139.349
rwrist -60.7421
rhand -0.567429 -66.3327
rfingers 7.12502
rthumb 25.0468 -265.29
lclavicle 6.70898e-016 1.51076e-014
lhumerus -60.5097 23.5749 61.9154
lradius 104.124
lwrist 59.9823
lhand -39.9537 6.97252
lfingers 7.12502
lthumb -12.9231 36.5524
rfemur -1.94675 23.5541 23.1968
rtibia 5.52903
rfoot -14.5026 -26.0243
rtoes 3.33387
lfemur 8.06859 -40.1381 -17.6406
ltibia -4.75662
lfoot -17.5385 48.8637
ltoes 9.6967
805
root 1.06055 17.4756 9.32445 6.59771 -0.880055 -7.11849
lowerback -3.32107 2.66423 7.6034
upperback -6.43673 3.5841 1.08705
thorax -4.46287 1.47165 -3.12178
lowerneck -3.22333 -6.4249 -4.47817
upperneck 25.8046 -10.7518 8.92038
head 9.3545 -4.63696 2.83761
rclavicle -1.78658e-014 -8.15017e-015
rhumerus -15.806 34.3531 -85.8365
rradius 139.397
rwrist -60.8395
rhand -0.808623 -66.657
rfingers 7.12502
rthumb 24.8156 -264.933
lclavicle -1.78658e-014 -8.15017e-015
lhumerus -60.4019 23.5602 61.9156
lradius 104.126
lwrist 60.0403
lhand -40.1031 6.65314
lfingers 7.12502
lthumb -13.0672 36.2238
rfemur -1.87627 23.6062 23.2216
rtibia 5.47451
rfoot -14.5728 -26.0692
rtoes 3.71101
lfemur 8.08489 -40.0832 -17.6425
ltibia -4.74585
lfoot -17.3239 48.7865
ltoes 9.42499
806
root 1.06009 17.4754 9.32626 6.57659 -0.852515 -7.13911
lowerback -3.30729 2.66302 7.63723
upperback -6.43278 3.58333 1.08083
thorax -4.46471 1.46958 -3.14753
lowerneck -2.82903 -6.39525 -3.89351
upperneck 24.9277 -10.6201 8.64853
head 8.9124 -4.58566 2.66918
rclavicle 1.09332e-015 1.78906e-014
rhumerus -15.3366 34.3472 -85.5256
rradius 139.421
rwrist -60.7271
rhand -0.614584 -67.0398
rfingers 7.12502
rthumb 25.0016 -264.576
lclavicle 1.09332e-015 1.78906e-014
lhumerus -60.3424 23.468 61.8608
lradius 104.165
lwrist 60.1308
lhand -40.1755 6.44938
lfingers 7.12502
lthumb -13.137 36.0156
rfemur -1.82029 23.6231 23.2722
rtibia 5.44967
rfoot -14.5982 -26.1036
rtoes 3.85908
lfemur 8.12217 -40.0927 -17.6357
ltibia -4.74293
lfoot -17.4143 48.7396
ltoes 9.55836
807
root 1.06029 17.4748 9.32745 6.56684 -0.872732 -7.15249
lowerback -3.26983 2.66857 7.66847
upperback -6.42858 3.59371 1.06993
thorax -4.47827 1.47257 -3.17782
lowerneck -2.83043 -6.38149 -4.14079
upperneck 24.51 -10.6353 9.07867
head 8.80587 -4.58838 2.85325
rclavicle 3.47873e-015 1.31198e-014
rhumerus -14.6949 34.3274 -85.1126
rradius 139.413
rwrist -60.4035
rhand -0.27473 -67.0702
rfingers 7.12502
rthumb 25.3272 -264.591
lclavicle 3.47873e-015 1.31198e-014
lhumerus -60.3475 23.461 61.7636
lradius 104.214
lwrist 60.0131
lhand -40.158 6.3519
lfingers 7.12502
lthumb -13.1201 35.9192
rfemur -1.80341 23.6351 23.2948
rtibia 5.45104
rfoot -14.6104 -26.0906
rtoes 3.90689
lfemur 8.1833 -40.1529 -17.6658
ltibia -4.76155
lfoot -17.4979 48.8128
ltoes 9.61851
808
root 1.06068 17.4742 9.32735 6.57823 -0.938019 -7.15593
lowerback -3.22473 2.68253 7.67494
upperback -6.41914 3.61616 1.07023
thorax -4.49099 1.48315 -3.18292
lowerneck -2.73608 -6.35465 -3.99257
upperneck 23.7698 -10.5428 9.10644
head 8.51845 -4.55518 2.84635
rclavicle 2.07233e-014 -1.94809e-014
rhumerus -13.9003 34.2999 -84.5993
rradius 139.397
rwrist -60.1301
rhand -0.012377 -66.9534
rfingers 7.12502
rthumb 25.5785 -264.744
lclavicle 2.07233e-014 -1.94809e-014
lhumerus -60.3728 23.5803 61.6753
lradius 104.252
lwrist 59.798
lhand -40.0802 6.26471
lfingers 7.12502
lthumb -13.0451 35.8368
rfemur -1.84193 23.6457 23.283
rtibia 5.48092
rfoot -14.5923 -26.0422
rtoes 3.77861
lfemur 8.20291 -40.1432 -17.6756
ltibia -4.77451
lfoot -17.5736 48.8576
ltoes 9.74671
809
root 1.06079 17.4741 9.32677 6.60815 -1.00346 -7.16241
lowerback -3.19473 2.69056 7.67406
upperback -6.4218 3.63012 1.07594
thorax -4.50967 1.48947 -3.17799
lowerneck -2.31301 -6.26386 -4.23641
upperneck 22.5962 -10.4034 9.69066
head 8.07438 -4.5097 3.1056
rclavicle -4.03036e-014 -6.55989e-015
rhumerus -13.049 34.3227 -84.0808
rradius 139.435
rwrist -60.0158
rhand -0.20017 -66.8443
rfingers 7.12502
rthumb 25.3986 -264.827
lclavicle -4.03036e-014 -6.55989e-015
lhumerus -60.3954 23.6655 61.5691
lradius 104.258
lwrist 59.7569
lhand -40.1597 6.15695
lfingers 7.12502
lthumb -13.1217 35.7241
rfemur -1.90567 23.6516 23.2615
rtibia 5.50822
rfoot -14.585 -25.9761
rtoes 3.79575
lfemur 8.16892 -40.1 -17.6338
ltibia -4.78464
lfoot -17.7154 48.845
ltoes 10.0441
810
root 1.06193 17.4745 9.32837 6.65027 -1.0706 -7.16388
lowerback -3.20606 2.68405 7.68493
upperback -6.43767 3.62107 1.07599
thorax -4.5207 1.4836 -3.18386
lowerneck -1.46069 -6.14805 -4.2953
upperneck 20.9384 -10.1763 10.2043
head 7.37876 -4.44585 3.32754
rclavicle -4.38072e-014 -2.50469e-014
rhumerus -12.1482 34.3988 -83.5412
rradius 139.485
rwrist -59.8848
rhand -0.656593 -66.8506
rfingers 7.12502
rthumb 24.9613 -264.76
lclavicle -4.38072e-014 -2.50469e-014
lhumerus -60.4058 23.7742 61.3759
lradius 104.205
lwrist 59.7827
lhand -40.2922 6.15708
lfingers 7.12502
lthumb -13.2494 35.716
rfemur -1.95777 23.6259 23.2212
rtibia 5.48733
rfoot -14.5692 -25.8842
rtoes 3.93118
lfemur 8.1778 -40.1951 -17.6539
ltibia -4.7984
lfoot -17.92 48.9724
ltoes 10.2622
